<?xml version="1.0" encoding="UTF-8" standalone="no"?>
<!DOCTYPE svg PUBLIC "-//W3C//DTD SVG 1.1//EN"
 "http://www.w3.org/Graphics/SVG/1.1/DTD/svg11.dtd">
<!-- Generated by graphviz version 2.47.0 (20210316.0004)
 -->
<!-- Title: dependencies Pages: 1 -->
<svg width="861pt" height="284pt"
 viewBox="0.00 0.00 861.00 284.00" xmlns="http://www.w3.org/2000/svg" xmlns:xlink="http://www.w3.org/1999/xlink">
<g id="graph0" class="graph" transform="scale(1 1) rotate(0) translate(4 280)">
<title>dependencies</title>
<polygon fill="white" stroke="transparent" points="-4,4 -4,-280 857,-280 857,4 -4,4"/>
<text text-anchor="start" x="405.51" y="-42.4" font-family="sans-serif" font-weight="bold" font-size="14.00">Legend</text>
<polygon fill="#ffffb3" stroke="transparent" points="192.5,-10 192.5,-30 212.5,-30 212.5,-10 192.5,-10"/>
<text text-anchor="start" x="216.13" y="-15.4" font-family="sans-serif" font-size="14.00"> &#160;Declarations</text>
<polygon fill="#8dd3c7" stroke="transparent" points="305.5,-10 305.5,-30 325.5,-30 325.5,-10 305.5,-10"/>
<text text-anchor="start" x="329.23" y="-15.4" font-family="sans-serif" font-size="14.00"> &#160;Module</text>
<polygon fill="#80b1d3" stroke="transparent" points="391.5,-10 391.5,-30 411.5,-30 411.5,-10 391.5,-10"/>
<text text-anchor="start" x="415.28" y="-15.4" font-family="sans-serif" font-size="14.00"> &#160;Bootstrap</text>
<polygon fill="#fdb462" stroke="transparent" points="488.5,-10 488.5,-30 508.5,-30 508.5,-10 488.5,-10"/>
<text text-anchor="start" x="512.17" y="-15.4" font-family="sans-serif" font-size="14.00"> &#160;Providers</text>
<polygon fill="#fb8072" stroke="transparent" points="584.5,-10 584.5,-30 604.5,-30 604.5,-10 584.5,-10"/>
<text text-anchor="start" x="608.23" y="-15.4" font-family="sans-serif" font-size="14.00"> &#160;Exports</text>
<g id="clust1" class="cluster">
<title>cluster_AppModule</title>
<polygon fill="none" stroke="black" stroke-dasharray="1,5" points="8,-70 8,-268 845,-268 845,-70 8,-70"/>
</g>
<g id="clust8" class="cluster">
<title>cluster_AppModule_imports</title>
<polygon fill="none" stroke="black" points="715,-78 715,-130 837,-130 837,-78 715,-78"/>
</g>
<g id="clust2" class="cluster">
<title>cluster_AppModule_declarations</title>
<polygon fill="none" stroke="black" points="16,-78 16,-130 707,-130 707,-78 16,-78"/>
</g>
<g id="clust10" class="cluster">
<title>cluster_AppModule_bootstrap</title>
<polygon fill="none" stroke="black" points="389,-208 389,-260 513,-260 513,-208 389,-208"/>
</g>
<!-- AppComponent -->
<g id="node1" class="node">
<title>AppComponent</title>
<polygon fill="#ffffb3" stroke="black" points="698.94,-122 593.06,-122 593.06,-86 698.94,-86 698.94,-122"/>
<text text-anchor="middle" x="646" y="-99.8" font-family="Times,serif" font-size="14.00">AppComponent</text>
</g>
<!-- AppModule -->
<g id="node6" class="node">
<title>AppModule</title>
<polygon fill="#8dd3c7" stroke="black" points="492.66,-187 489.66,-191 468.66,-191 465.66,-187 409.34,-187 409.34,-151 492.66,-151 492.66,-187"/>
<text text-anchor="middle" x="451" y="-164.8" font-family="Times,serif" font-size="14.00">AppModule</text>
</g>
<!-- AppComponent&#45;&gt;AppModule -->
<g id="edge1" class="edge">
<title>AppComponent&#45;&gt;AppModule</title>
<path fill="none" stroke="black" d="M646,-122.02C646,-139.37 646,-163 646,-163 646,-163 502.83,-163 502.83,-163"/>
<polygon fill="black" stroke="black" points="502.83,-159.5 492.83,-163 502.83,-166.5 502.83,-159.5"/>
</g>
<!-- DetailComponent -->
<g id="node2" class="node">
<title>DetailComponent</title>
<polygon fill="#ffffb3" stroke="black" points="575.54,-122 460.46,-122 460.46,-86 575.54,-86 575.54,-122"/>
<text text-anchor="middle" x="518" y="-99.8" font-family="Times,serif" font-size="14.00">DetailComponent</text>
</g>
<!-- DetailComponent&#45;&gt;AppModule -->
<g id="edge2" class="edge">
<title>DetailComponent&#45;&gt;AppModule</title>
<path fill="none" stroke="black" d="M476.53,-122.11C476.53,-122.11 476.53,-140.99 476.53,-140.99"/>
<polygon fill="black" stroke="black" points="473.03,-140.99 476.53,-150.99 480.03,-140.99 473.03,-140.99"/>
</g>
<!-- HoverComponent -->
<g id="node3" class="node">
<title>HoverComponent</title>
<polygon fill="#ffffb3" stroke="black" points="442.31,-122 325.69,-122 325.69,-86 442.31,-86 442.31,-122"/>
<text text-anchor="middle" x="384" y="-99.8" font-family="Times,serif" font-size="14.00">HoverComponent</text>
</g>
<!-- HoverComponent&#45;&gt;AppModule -->
<g id="edge3" class="edge">
<title>HoverComponent&#45;&gt;AppModule</title>
<path fill="none" stroke="black" d="M425.66,-122.11C425.66,-122.11 425.66,-140.99 425.66,-140.99"/>
<polygon fill="black" stroke="black" points="422.16,-140.99 425.66,-150.99 429.16,-140.99 422.16,-140.99"/>
</g>
<!-- MenuComponent -->
<g id="node4" class="node">
<title>MenuComponent</title>
<polygon fill="#ffffb3" stroke="black" points="307.99,-122 194.01,-122 194.01,-86 307.99,-86 307.99,-122"/>
<text text-anchor="middle" x="251" y="-99.8" font-family="Times,serif" font-size="14.00">MenuComponent</text>
</g>
<!-- MenuComponent&#45;&gt;AppModule -->
<g id="edge4" class="edge">
<title>MenuComponent&#45;&gt;AppModule</title>
<path fill="none" stroke="black" d="M251,-122.02C251,-139.37 251,-163 251,-163 251,-163 399.07,-163 399.07,-163"/>
<polygon fill="black" stroke="black" points="399.07,-166.5 409.07,-163 399.07,-159.5 399.07,-166.5"/>
</g>
<!-- Visualizer3dComponent -->
<g id="node5" class="node">
<title>Visualizer3dComponent</title>
<polygon fill="#ffffb3" stroke="black" points="176.36,-122 23.64,-122 23.64,-86 176.36,-86 176.36,-122"/>
<text text-anchor="middle" x="100" y="-99.8" font-family="Times,serif" font-size="14.00">Visualizer3dComponent</text>
</g>
<!-- Visualizer3dComponent&#45;&gt;AppModule -->
<g id="edge5" class="edge">
<title>Visualizer3dComponent&#45;&gt;AppModule</title>
<path fill="none" stroke="black" d="M100,-122.28C100,-143.32 100,-175 100,-175 100,-175 399.01,-175 399.01,-175"/>
<polygon fill="black" stroke="black" points="399.01,-178.5 409.01,-175 399.01,-171.5 399.01,-178.5"/>
</g>
<!-- AppComponent  -->
<g id="node8" class="node">
<title>AppComponent </title>
<polygon fill="#80b1d3" stroke="black" points="505.44,-252 396.56,-252 396.56,-216 505.44,-216 505.44,-252"/>
<text text-anchor="middle" x="451" y="-229.8" font-family="Times,serif" font-size="14.00">AppComponent </text>
</g>
<!-- AppModule&#45;&gt;AppComponent  -->
<g id="edge7" class="edge">
<title>AppModule&#45;&gt;AppComponent </title>
<path fill="none" stroke="black" stroke-dasharray="1,5" d="M451,-187.11C451,-187.11 451,-205.99 451,-205.99"/>
<polygon fill="black" stroke="black" points="447.5,-205.99 451,-215.99 454.5,-205.99 447.5,-205.99"/>
</g>
<!-- MaterialModule -->
<g id="node7" class="node">
<title>MaterialModule</title>
<polygon fill="#8dd3c7" stroke="black" points="829.47,-122 826.47,-126 805.47,-126 802.47,-122 722.53,-122 722.53,-86 829.47,-86 829.47,-122"/>
<text text-anchor="middle" x="776" y="-99.8" font-family="Times,serif" font-size="14.00">MaterialModule</text>
</g>
<!-- MaterialModule&#45;&gt;AppModule -->
<g id="edge6" class="edge">
<title>MaterialModule&#45;&gt;AppModule</title>
<path fill="none" stroke="black" d="M776,-122.28C776,-143.32 776,-175 776,-175 776,-175 502.82,-175 502.82,-175"/>
<polygon fill="black" stroke="black" points="502.82,-171.5 492.82,-175 502.82,-178.5 502.82,-171.5"/>
</g>
</g>
</svg>
